<mxfile>
    <diagram id="_gWs02gXRSsfUdOjpwtX" name="第 1 页">
        <mxGraphModel dx="551" dy="475" grid="1" gridSize="10" guides="1" tooltips="1" connect="1" arrows="1" fold="1" page="1" pageScale="1" pageWidth="850" pageHeight="1100" math="0" shadow="0">
            <root>
                <mxCell id="0"/>
                <mxCell id="1" parent="0"/>
                <mxCell id="2" value="" style="rounded=1;whiteSpace=wrap;html=1;dashed=1;" parent="1" vertex="1">
                    <mxGeometry x="150" y="120" width="530" height="430" as="geometry"/>
                </mxCell>
                <mxCell id="3" value="MemoryStorage" style="rounded=1;whiteSpace=wrap;html=1;" parent="1" vertex="1">
                    <mxGeometry x="340" y="90" width="160" height="60" as="geometry"/>
                </mxCell>
                <mxCell id="4" value="" style="rounded=1;whiteSpace=wrap;html=1;dashed=1;dashPattern=1 1;" parent="1" vertex="1">
                    <mxGeometry x="190" y="180" width="180" height="230" as="geometry"/>
                </mxCell>
                <mxCell id="5" value="pb.Snapshot" style="rounded=1;whiteSpace=wrap;html=1;" parent="1" vertex="1">
                    <mxGeometry x="220" y="150" width="120" height="60" as="geometry"/>
                </mxCell>
                <mxCell id="6" value="" style="rounded=1;whiteSpace=wrap;html=1;dashed=1;dashPattern=1 1;" parent="1" vertex="1">
                    <mxGeometry x="450" y="180" width="180" height="230" as="geometry"/>
                </mxCell>
                <mxCell id="7" value="pb.Hardstate" style="rounded=1;whiteSpace=wrap;html=1;" parent="1" vertex="1">
                    <mxGeometry x="480" y="150" width="120" height="60" as="geometry"/>
                </mxCell>
                <mxCell id="8" value="Data" style="rounded=1;whiteSpace=wrap;html=1;" parent="1" vertex="1">
                    <mxGeometry x="220" y="230" width="120" height="40" as="geometry"/>
                </mxCell>
                <mxCell id="10" value="Metadata" style="rounded=1;whiteSpace=wrap;html=1;" parent="1" vertex="1">
                    <mxGeometry x="220" y="280" width="120" height="40" as="geometry"/>
                </mxCell>
                <mxCell id="11" value="Term=2" style="rounded=1;whiteSpace=wrap;html=1;" parent="1" vertex="1">
                    <mxGeometry x="270" y="330" width="60" height="30" as="geometry"/>
                </mxCell>
                <mxCell id="12" value="Index=20" style="rounded=1;whiteSpace=wrap;html=1;" parent="1" vertex="1">
                    <mxGeometry x="270" y="370" width="60" height="30" as="geometry"/>
                </mxCell>
                <mxCell id="14" value="Term" style="rounded=1;whiteSpace=wrap;html=1;" parent="1" vertex="1">
                    <mxGeometry x="480" y="230" width="120" height="40" as="geometry"/>
                </mxCell>
                <mxCell id="15" value="Vote" style="rounded=1;whiteSpace=wrap;html=1;" parent="1" vertex="1">
                    <mxGeometry x="480" y="280" width="120" height="40" as="geometry"/>
                </mxCell>
                <mxCell id="16" value="Commit" style="rounded=1;whiteSpace=wrap;html=1;" parent="1" vertex="1">
                    <mxGeometry x="480" y="330" width="120" height="40" as="geometry"/>
                </mxCell>
                <mxCell id="19" value="" style="endArrow=none;html=1;entryX=0.25;entryY=1;entryDx=0;entryDy=0;" parent="1" target="10" edge="1">
                    <mxGeometry width="50" height="50" relative="1" as="geometry">
                        <mxPoint x="250" y="380" as="sourcePoint"/>
                        <mxPoint x="270" y="320" as="targetPoint"/>
                    </mxGeometry>
                </mxCell>
                <mxCell id="20" value="" style="endArrow=none;html=1;" parent="1" edge="1">
                    <mxGeometry width="50" height="50" relative="1" as="geometry">
                        <mxPoint x="250" y="350" as="sourcePoint"/>
                        <mxPoint x="270" y="350" as="targetPoint"/>
                    </mxGeometry>
                </mxCell>
                <mxCell id="24" value="" style="endArrow=none;html=1;" parent="1" edge="1">
                    <mxGeometry width="50" height="50" relative="1" as="geometry">
                        <mxPoint x="250" y="380" as="sourcePoint"/>
                        <mxPoint x="270" y="380" as="targetPoint"/>
                    </mxGeometry>
                </mxCell>
                <mxCell id="25" value="" style="rounded=1;whiteSpace=wrap;html=1;dashed=1;" parent="1" vertex="1">
                    <mxGeometry x="200" y="450" width="440" height="80" as="geometry"/>
                </mxCell>
                <mxCell id="26" value="ents" style="rounded=1;whiteSpace=wrap;html=1;" parent="1" vertex="1">
                    <mxGeometry x="360" y="430" width="120" height="30" as="geometry"/>
                </mxCell>
                <mxCell id="27" value="" style="rounded=0;whiteSpace=wrap;html=1;" vertex="1" parent="1">
                    <mxGeometry x="230" y="480" width="380" height="30" as="geometry"/>
                </mxCell>
                <mxCell id="28" value="" style="endArrow=none;html=1;exitX=0.122;exitY=1.006;exitDx=0;exitDy=0;exitPerimeter=0;entryX=0.123;entryY=0.011;entryDx=0;entryDy=0;entryPerimeter=0;" edge="1" parent="1">
                    <mxGeometry width="50" height="50" relative="1" as="geometry">
                        <mxPoint x="274.3599999999999" y="510.17999999999995" as="sourcePoint"/>
                        <mxPoint x="274.7399999999999" y="480.33000000000004" as="targetPoint"/>
                    </mxGeometry>
                </mxCell>
                <mxCell id="30" value="" style="endArrow=none;html=1;exitX=0.122;exitY=1.006;exitDx=0;exitDy=0;exitPerimeter=0;entryX=0.123;entryY=0.011;entryDx=0;entryDy=0;entryPerimeter=0;" edge="1" parent="1">
                    <mxGeometry width="50" height="50" relative="1" as="geometry">
                        <mxPoint x="318.00000000000006" y="509.8500000000001" as="sourcePoint"/>
                        <mxPoint x="318.38000000000005" y="480.00000000000006" as="targetPoint"/>
                    </mxGeometry>
                </mxCell>
                <mxCell id="31" value="" style="endArrow=none;html=1;exitX=0.122;exitY=1.006;exitDx=0;exitDy=0;exitPerimeter=0;entryX=0.123;entryY=0.011;entryDx=0;entryDy=0;entryPerimeter=0;" edge="1" parent="1">
                    <mxGeometry width="50" height="50" relative="1" as="geometry">
                        <mxPoint x="360" y="509.85" as="sourcePoint"/>
                        <mxPoint x="360.3800000000001" y="480.0000000000001" as="targetPoint"/>
                    </mxGeometry>
                </mxCell>
                <mxCell id="32" value="" style="endArrow=none;html=1;exitX=0.122;exitY=1.006;exitDx=0;exitDy=0;exitPerimeter=0;entryX=0.123;entryY=0.011;entryDx=0;entryDy=0;entryPerimeter=0;" edge="1" parent="1">
                    <mxGeometry width="50" height="50" relative="1" as="geometry">
                        <mxPoint x="400" y="510" as="sourcePoint"/>
                        <mxPoint x="400.3800000000001" y="480.1500000000001" as="targetPoint"/>
                    </mxGeometry>
                </mxCell>
                <mxCell id="33" value="" style="endArrow=none;html=1;exitX=0.122;exitY=1.006;exitDx=0;exitDy=0;exitPerimeter=0;entryX=0.123;entryY=0.011;entryDx=0;entryDy=0;entryPerimeter=0;" edge="1" parent="1">
                    <mxGeometry width="50" height="50" relative="1" as="geometry">
                        <mxPoint x="440" y="510" as="sourcePoint"/>
                        <mxPoint x="440.3800000000001" y="480.1500000000001" as="targetPoint"/>
                    </mxGeometry>
                </mxCell>
                <mxCell id="34" value="" style="endArrow=none;html=1;exitX=0.122;exitY=1.006;exitDx=0;exitDy=0;exitPerimeter=0;entryX=0.123;entryY=0.011;entryDx=0;entryDy=0;entryPerimeter=0;" edge="1" parent="1">
                    <mxGeometry width="50" height="50" relative="1" as="geometry">
                        <mxPoint x="480" y="510" as="sourcePoint"/>
                        <mxPoint x="480.3800000000001" y="480.1500000000001" as="targetPoint"/>
                    </mxGeometry>
                </mxCell>
                <mxCell id="35" value="" style="endArrow=none;html=1;exitX=0.122;exitY=1.006;exitDx=0;exitDy=0;exitPerimeter=0;entryX=0.123;entryY=0.011;entryDx=0;entryDy=0;entryPerimeter=0;" edge="1" parent="1">
                    <mxGeometry width="50" height="50" relative="1" as="geometry">
                        <mxPoint x="520" y="510" as="sourcePoint"/>
                        <mxPoint x="520.3800000000001" y="480.1500000000001" as="targetPoint"/>
                    </mxGeometry>
                </mxCell>
                <mxCell id="36" value="..." style="text;html=1;strokeColor=none;fillColor=none;align=center;verticalAlign=middle;whiteSpace=wrap;rounded=0;" vertex="1" parent="1">
                    <mxGeometry x="550" y="485" width="40" height="20" as="geometry"/>
                </mxCell>
                <mxCell id="38" value="22" style="text;html=1;strokeColor=none;fillColor=none;align=center;verticalAlign=middle;whiteSpace=wrap;rounded=0;" vertex="1" parent="1">
                    <mxGeometry x="278" y="485" width="40" height="20" as="geometry"/>
                </mxCell>
                <mxCell id="39" value="23" style="text;html=1;strokeColor=none;fillColor=none;align=center;verticalAlign=middle;whiteSpace=wrap;rounded=0;" vertex="1" parent="1">
                    <mxGeometry x="320" y="485" width="40" height="20" as="geometry"/>
                </mxCell>
                <mxCell id="40" value="24" style="text;html=1;strokeColor=none;fillColor=none;align=center;verticalAlign=middle;whiteSpace=wrap;rounded=0;" vertex="1" parent="1">
                    <mxGeometry x="360" y="485" width="40" height="20" as="geometry"/>
                </mxCell>
                <mxCell id="41" value="25" style="text;html=1;strokeColor=none;fillColor=none;align=center;verticalAlign=middle;whiteSpace=wrap;rounded=0;" vertex="1" parent="1">
                    <mxGeometry x="400" y="485" width="40" height="20" as="geometry"/>
                </mxCell>
                <mxCell id="42" value="26" style="text;html=1;strokeColor=none;fillColor=none;align=center;verticalAlign=middle;whiteSpace=wrap;rounded=0;" vertex="1" parent="1">
                    <mxGeometry x="440" y="485" width="40" height="20" as="geometry"/>
                </mxCell>
                <mxCell id="43" value="27" style="text;html=1;strokeColor=none;fillColor=none;align=center;verticalAlign=middle;whiteSpace=wrap;rounded=0;" vertex="1" parent="1">
                    <mxGeometry x="480" y="485" width="40" height="20" as="geometry"/>
                </mxCell>
                <mxCell id="45" value="21" style="text;html=1;strokeColor=none;fillColor=none;align=center;verticalAlign=middle;whiteSpace=wrap;rounded=0;" vertex="1" parent="1">
                    <mxGeometry x="236" y="485" width="40" height="20" as="geometry"/>
                </mxCell>
            </root>
        </mxGraphModel>
    </diagram>
</mxfile>